<?xml version="1.0" standalone="no"?>
<!DOCTYPE svg PUBLIC "-//W3C//DTD SVG 20010904//EN"
 "http://www.w3.org/TR/2001/REC-SVG-20010904/DTD/svg10.dtd">
<svg version="1.0" xmlns="http://www.w3.org/2000/svg"
 width="900.000000pt" height="735.000000pt" viewBox="0 0 900.000000 735.000000"
 preserveAspectRatio="xMidYMid meet">
<metadata>
Created by potrace 1.10, written by Peter Selinger 2001-2011
</metadata>
<g transform="translate(0.000000,735.000000) scale(0.100000,-0.100000)"
fill="#000000" stroke="none">
<path d="M492 6738 c-16 -16 -17 -4192 -2 -4420 27 -395 132 -708 344 -1033
129 -197 289 -367 485 -514 230 -173 423 -270 686 -346 28 -7 74 -21 104 -29
29 -9 65 -16 80 -16 14 -1 53 -7 86 -15 87 -21 485 -21 625 1 235 36 449 106
658 216 348 182 668 488 844 807 17 31 41 75 54 97 12 23 39 82 59 130 69 168
75 172 109 72 34 -95 132 -288 201 -393 297 -451 768 -780 1285 -899 160 -36
257 -46 470 -46 260 0 380 16 625 85 249 69 529 227 765 431 229 197 410 445
542 744 79 177 129 362 160 585 16 117 16 397 0 505 -30 203 -54 301 -127 510
-15 43 -122 264 -148 305 -44 70 -128 190 -171 245 -119 153 -349 359 -531
476 -50 31 -221 119 -295 151 -19 8 -48 21 -63 29 -16 8 -35 14 -42 14 -8 0
-29 6 -47 14 -70 29 -183 55 -394 91 -123 20 -424 20 -531 0 -109 -21 -172
-20 -179 3 -6 16 -28 67 -44 103 -5 8 -40 92 -80 185 -67 157 -111 257 -130
295 -4 8 -47 107 -95 219 -48 112 -91 212 -96 222 -5 10 -13 26 -18 36 -5 10
-48 110 -96 223 -48 112 -91 208 -96 213 -5 6 -9 20 -9 33 l0 23 375 0 c462 0
504 5 588 69 105 79 144 163 135 292 -7 111 -74 211 -177 263 l-50 26 -711 0
-711 0 -73 -30 c-129 -54 -211 -170 -211 -300 0 -42 20 -122 36 -145 4 -5 39
-86 79 -179 40 -93 75 -177 80 -185 4 -9 15 -34 25 -56 9 -22 21 -47 25 -56 4
-8 40 -91 80 -184 40 -93 75 -176 80 -184 4 -9 14 -32 22 -51 20 -46 49 -111
58 -131 5 -8 34 -76 65 -149 31 -73 60 -141 65 -149 4 -9 14 -33 24 -53 18
-42 35 -80 65 -148 57 -129 71 -164 71 -176 0 -12 -155 -14 -978 -14 -538 0
-981 3 -985 6 -3 3 12 31 33 63 213 313 276 699 173 1061 -104 366 -382 692
-748 878 -133 68 -212 98 -350 135 -175 46 -163 46 -1136 51 -703 4 -928 3
-937 -6z m1903 -676 c202 -60 346 -143 466 -269 131 -136 191 -281 190 -459 0
-207 -78 -359 -266 -519 -116 -98 -305 -190 -430 -209 -22 -3 -62 -10 -90 -15
-67 -13 -1102 -14 -1110 -2 -7 13 -7 1480 1 1493 4 6 219 8 588 5 552 -4 584
-5 651 -25z m385 -2137 c338 -44 613 -180 859 -426 175 -175 293 -367 364
-594 57 -184 62 -219 62 -465 -1 -231 -3 -254 -53 -430 -32 -112 -113 -282
-190 -399 -70 -106 -279 -319 -380 -387 -76 -51 -239 -140 -282 -154 -14 -5
-50 -18 -80 -30 -288 -112 -704 -112 -990 0 -30 12 -66 25 -80 30 -51 17 -158
75 -253 138 -127 83 -319 273 -403 398 -106 155 -189 355 -235 559 -21 95 -24
462 -5 530 9 29 16 62 16 73 0 23 26 113 46 160 8 18 14 39 14 48 0 25 93 205
154 299 56 85 85 120 181 219 158 162 355 287 575 364 216 76 442 98 680 67z
m3995 1 c120 -15 192 -31 243 -52 18 -8 39 -14 47 -14 32 0 260 -113 347 -172
87 -58 236 -188 296 -257 126 -144 250 -365 292 -516 5 -16 13 -43 18 -60 62
-182 74 -518 26 -720 -64 -265 -185 -503 -349 -684 -59 -65 -93 -97 -186 -175
-82 -69 -267 -174 -384 -219 -22 -8 -58 -22 -80 -30 -103 -40 -301 -71 -455
-72 -178 0 -359 31 -500 85 -30 12 -66 25 -80 30 -52 17 -208 103 -287 158
-134 94 -270 232 -367 372 -50 72 -176 319 -176 344 0 10 -6 29 -14 44 -12 25
-24 72 -56 232 -37 183 -16 469 49 665 39 118 51 148 86 220 38 80 163 267
222 334 92 105 285 261 322 261 11 0 32 -39 65 -118 27 -64 62 -146 79 -182
16 -36 35 -78 42 -95 7 -16 24 -55 38 -85 14 -30 50 -115 82 -189 31 -74 61
-142 65 -150 4 -9 15 -32 23 -51 8 -19 26 -60 40 -90 14 -30 50 -115 82 -189
31 -74 61 -142 65 -150 4 -9 15 -32 23 -51 55 -125 83 -173 124 -211 68 -62
122 -82 223 -82 73 0 93 4 137 27 115 59 183 168 183 292 0 50 -15 107 -45
179 -24 57 -65 147 -75 166 -4 8 -47 107 -95 219 -48 112 -91 212 -96 222 -5
10 -13 26 -18 36 -5 10 -41 94 -81 187 -40 93 -75 176 -80 184 -4 9 -14 32
-23 51 -8 19 -24 55 -36 80 -59 131 -91 214 -84 221 24 22 195 24 348 5z
m-1742 -43 c3 -5 -11 -26 -30 -48 -52 -61 -146 -184 -179 -235 -78 -122 -214
-399 -214 -435 0 -7 -5 -17 -12 -21 -13 -8 -48 30 -48 53 0 22 -104 235 -162
332 -58 97 -187 272 -230 313 -15 15 -28 32 -28 37 0 13 896 16 903 4z"/>
<path d="M2510 3026 c-98 -20 -175 -77 -225 -166 -19 -33 -20 -55 -20 -415 l0
-380 31 -50 c36 -60 110 -118 175 -140 61 -19 167 -19 227 1 95 31 180 113
202 195 7 26 10 164 8 397 -3 344 -4 358 -25 397 -45 84 -134 145 -237 164
-67 12 -61 12 -136 -3z"/>
</g>
</svg>
